<?xml version="1.0" standalone="no"?>
<!DOCTYPE svg PUBLIC "-//W3C//DTD SVG 20010904//EN"
 "http://www.w3.org/TR/2001/REC-SVG-20010904/DTD/svg10.dtd">
<svg version="1.0" xmlns="http://www.w3.org/2000/svg"
 width="435.000000pt" height="435.000000pt" viewBox="0 0 435.000000 435.000000"
 preserveAspectRatio="xMidYMid meet">
<metadata>
Created by potrace 1.11, written by Peter Selinger 2001-2013
</metadata>
<g transform="translate(0.000000,435.000000) scale(0.100000,-0.100000)"
fill="#000000" stroke="none">
<path d="M0 2175 l0 -2175 2175 0 2175 0 0 2175 0 2175 -2175 0 -2175 0 0
-2175z m2399 1763 c31 -17 58 -33 60 -34 2 -2 -2 -24 -9 -49 -10 -35 -10 -55
-1 -91 7 -26 10 -48 8 -51 -3 -2 -29 8 -60 23 -52 26 -55 29 -61 72 -8 58 -8
162 0 162 4 0 32 -14 63 -32z m1266 -177 c27 -57 27 -62 12 -79 -10 -11 -17
-35 -17 -58 l0 -39 -47 47 -46 46 28 76 c16 41 32 73 35 71 3 -2 19 -31 35
-64z m-2027 -236 c51 -37 92 -68 92 -70 0 -2 -23 -1 -51 2 -42 5 -55 2 -79
-16 -38 -27 -46 -27 -54 4 -5 19 -13 25 -34 26 -64 1 -67 11 -20 67 23 28 46
52 49 52 3 0 47 -29 97 -65z m1249 23 c26 -28 31 -42 36 -100 l5 -67 -90 45
-89 45 48 54 c26 30 50 55 53 55 3 0 20 -15 37 -32z m697 -54 c60 -54 60 -52
29 -154 -56 -184 -345 -625 -511 -781 l-69 -64 -11 -102 c-25 -220 -34 -453
-29 -718 6 -282 20 -409 57 -527 24 -78 22 -85 -43 -145 -32 -30 -55 -42 -89
-47 -41 -6 -52 -3 -100 28 -50 32 -55 39 -66 88 -53 242 -59 608 -18 1198 14
213 12 255 -14 285 -9 11 -31 41 -48 66 -50 75 -127 153 -276 283 -149 129
-231 227 -292 347 -32 65 -33 70 -26 145 l7 79 56 30 57 29 43 -19 c63 -27 68
-33 165 -178 77 -117 106 -150 247 -282 87 -82 183 -172 213 -199 l55 -48 38
26 c81 57 134 142 243 396 44 102 96 216 115 254 l35 69 89 -5 90 -6 53 -48z
m-2443 -48 c134 -35 380 -121 474 -165 134 -63 130 -57 220 -324 l79 -235 54
19 c31 11 57 17 59 15 3 -2 -1 -22 -7 -44 -6 -23 -8 -59 -4 -81 7 -46 0 -50
-46 -26 -17 9 -30 12 -30 7 0 -4 10 -50 22 -102 21 -86 23 -118 21 -338 -2
-329 -24 -423 -159 -663 -107 -191 -210 -297 -300 -307 -24 -2 -44 -9 -44 -14
0 -4 -12 -13 -27 -19 -35 -13 -197 -55 -244 -63 -27 -5 -43 -17 -69 -51 -32
-43 -36 -45 -83 -45 -40 0 -62 8 -127 47 l-77 46 9 35 c10 37 4 128 -28 412
-13 123 -15 218 -9 625 7 494 1 625 -32 688 -10 20 -15 74 -17 185 -2 86 -8
175 -13 197 -6 30 -5 54 8 95 13 45 25 62 65 92 47 37 52 38 130 38 55 0 113
-8 175 -24z m-543 -199 c19 -20 28 -41 33 -84 3 -32 5 -59 4 -61 -2 -2 -22 6
-45 18 -31 16 -52 20 -79 15 l-38 -6 -26 74 c-15 42 -27 77 -27 79 0 2 34 1
76 -3 63 -5 80 -10 102 -32z m3140 -622 l53 -40 -68 -21 c-37 -12 -69 -20 -70
-20 -1 1 -11 41 -21 89 l-20 87 37 -27 c20 -16 60 -46 89 -68z m-3146 -405
c40 -45 43 -53 40 -95 l-4 -46 -57 7 c-70 8 -71 9 -71 45 0 16 -11 51 -25 78
-13 27 -21 51 -18 55 4 3 25 6 49 6 38 0 47 -5 86 -50z m1633 -147 l-16 -38
-22 27 c-13 15 -31 41 -40 58 l-18 30 53 23 53 24 3 -43 c2 -23 -4 -59 -13
-81z m322 -41 c-4 -38 -12 -82 -18 -99 -8 -24 -7 -39 5 -66 l14 -35 -54 -4
-55 -3 -10 40 c-6 22 -14 54 -19 72 -6 24 -5 33 6 37 11 4 13 16 8 45 l-6 39
58 20 c33 11 63 21 68 21 5 1 6 -29 3 -67z m995 -359 c-2 -32 -6 -60 -8 -62
-5 -6 -157 -31 -162 -27 -6 6 36 84 50 93 16 10 111 52 119 53 3 0 4 -26 1
-57z m-1197 -454 c-3 -3 -25 -12 -51 -18 -43 -11 -47 -10 -65 13 -11 13 -35
34 -54 46 -19 12 -35 25 -35 28 0 4 19 19 43 34 l42 27 62 -61 c34 -34 60 -65
58 -69z m-419 -184 c35 -14 36 -16 22 -37 -8 -13 -21 -33 -29 -45 -9 -16 -23
-23 -45 -23 -27 0 -33 -6 -54 -50 l-24 -50 -29 36 c-29 35 -32 36 -83 32 l-52
-5 50 75 50 74 42 -5 c23 -3 48 -2 56 3 22 14 56 12 96 -5z m-1141 -375 c19
-38 35 -72 35 -75 0 -3 -25 -5 -55 -5 -33 0 -55 4 -55 11 0 14 33 139 37 139
1 0 19 -31 38 -70z m2373 -184 c35 -8 66 -16 69 -19 6 -6 -26 -95 -36 -102 -6
-3 -111 118 -111 129 0 8 5 7 78 -8z"/>
<path d="M1046 3134 c-11 -28 -6 -153 14 -389 32 -388 52 -736 58 -1055 l7
-305 30 3 c40 4 138 51 197 93 25 19 91 73 145 121 97 84 100 88 117 153 10
36 29 82 42 101 13 19 24 40 24 46 0 7 10 32 21 56 21 42 22 54 16 211 -15
409 -95 714 -223 851 -37 39 -58 52 -123 73 -83 28 -231 57 -286 57 -21 0 -35
-6 -39 -16z m275 -441 c31 -45 32 -48 20 -92 -7 -25 -23 -71 -37 -101 l-26
-55 -23 45 c-34 64 -34 148 0 207 14 23 28 43 30 43 2 0 18 -21 36 -47z m202
-860 c3 -16 8 -35 12 -44 5 -12 -7 -25 -45 -48 -27 -17 -55 -31 -60 -31 -6 0
-40 20 -76 44 -68 46 -68 56 -1 56 18 0 55 11 82 24 66 32 81 32 88 -1z"/>
</g>
</svg>
